<?xml version="1.0" encoding="UTF-8" standalone="no"?>
<svg
   viewBox="0 0 448 512"
   version="1.1"
   id="svg2119"
   sodipodi:docname="graphql-square.svg"
   inkscape:version="1.2 (56b05e47e7, 2022-06-09, custom)"
   xmlns:inkscape="http://www.inkscape.org/namespaces/inkscape"
   xmlns:sodipodi="http://sodipodi.sourceforge.net/DTD/sodipodi-0.dtd"
   xmlns="http://www.w3.org/2000/svg"
   xmlns:svg="http://www.w3.org/2000/svg">
  <defs
     id="defs2123" />
  <sodipodi:namedview
     id="namedview2121"
     pagecolor="#ffffff"
     bordercolor="#000000"
     borderopacity="0.25"
     inkscape:showpageshadow="2"
     inkscape:pageopacity="0.0"
     inkscape:pagecheckerboard="0"
     inkscape:deskcolor="#d1d1d1"
     showgrid="false"
     inkscape:zoom="1.8514202"
     inkscape:cx="64.545046"
     inkscape:cy="282.75591"
     inkscape:window-width="2488"
     inkscape:window-height="1376"
     inkscape:window-x="72"
     inkscape:window-y="27"
     inkscape:window-maximized="1"
     inkscape:current-layer="svg2119" />
  <g
     id="g2178">
    <path
       id="path2117"
       d="m 48.572565,27.826292 c -26.499973,0 -47.99999995,21.50002 -47.99999995,48.000002 V 427.82629 c 0,26.49997 21.50002695,48 47.99999995,48 H 400.57256 c 26.49997,0 48,-21.50003 48,-48 V 75.826294 c 0,-26.499982 -21.50003,-48.000002 -48,-48.000002 z" />
    <g
       id="g504"
       transform="matrix(3.6397431,0,0,3.6397431,740.13778,-720.05701)"
       style="display:inline">
      <path
         fill-rule="evenodd"
         clip-rule="evenodd"
         d="m -141.64634,223.92282 37.323,21.54842 v 43.0969 l -37.323,21.5484 -37.32301,-21.5484 v -43.0969 z m -33.13531,23.96622 v 31.6558 l 27.41481,-47.4837 z m 33.13531,-17.3607 -31.60251,54.7371 h 63.20501 z m 27.4148,58.9248 h -54.82961 l 27.41481,15.8279 z m 5.7205,-9.9083 -27.4148,-47.4837 27.4148,15.8279 z"
         id="path200"
         style="display:inline;fill:#ffffff" />
      <circle
         cx="-141.64635"
         cy="226.34065"
         r="8.8199997"
         id="circle202"
         style="fill:#ffffff" />
      <circle
         cx="-106.41714"
         cy="246.68025"
         r="8.8199997"
         id="circle204"
         style="fill:#ffffff" />
      <circle
         cx="-106.41714"
         cy="287.35934"
         r="8.8199997"
         id="circle206"
         style="fill:#ffffff" />
      <circle
         cx="-141.64635"
         cy="307.69885"
         r="8.8199997"
         id="circle208"
         style="fill:#ffffff" />
      <circle
         cx="-176.88045"
         cy="287.35934"
         r="8.8199997"
         id="circle210"
         style="fill:#ffffff" />
      <circle
         cx="-176.88045"
         cy="246.68025"
         r="8.8199997"
         id="circle212"
         style="fill:#ffffff" />
    </g>
  </g>
</svg>
